<svg width="272" height="80" viewBox="0 0 272 80" fill="none" xmlns="http://www.w3.org/2000/svg">
<path d="M110.458 23.1055H111.591C113.752 23.1055 115.12 24.6224 115.693 27.6562V31.9922C115.693 32.2917 115.92 32.4414 116.376 32.4414C119.618 30.4102 123.72 27.5977 128.681 24.0039L130.263 23.7891C133.153 24.3099 134.599 25.599 134.599 27.6562V29.2578C134.599 30.8464 131.031 33.8802 123.896 38.3594C122.828 39.1146 122.294 39.5703 122.294 39.7266V39.9609C122.828 40.5078 125.562 41.7188 130.497 43.5938C132.32 44.7917 133.232 46.0872 133.232 47.4805V48.3789C133.232 50.5664 131.786 51.9336 128.896 52.4805C128.049 52.4805 124.104 50.9635 117.06 47.9297L115.907 47.6953C115.517 52.8646 115.061 55.4492 114.54 55.4492C113.759 56.6602 112.548 57.2656 110.907 57.2656C108.85 57.2656 107.405 56.1263 106.571 53.8477C106.728 47.3242 106.806 42.3112 106.806 38.8086V31.9922C106.806 30.4818 106.728 28.6589 106.571 26.5234C107.509 24.2448 108.805 23.1055 110.458 23.1055ZM143.407 19.9023C144.501 19.9023 145.393 20.7487 146.083 22.4414C146.318 22.4284 146.545 22.4219 146.767 22.4219C148.472 22.4219 149.325 23.0273 149.325 24.2383V24.6875C149.325 24.974 148.739 25.8464 147.568 27.3047C148.036 28.3594 148.271 29.2643 148.271 30.0195C148.271 30.1888 148.258 30.3516 148.232 30.5078C148.101 31.3411 147.568 31.7578 146.63 31.7578C145.693 31.7578 144.482 31.224 142.997 30.1562C141.448 31.3802 140.354 31.9922 139.716 31.9922C139.078 31.9922 138.59 31.7643 138.251 31.3086C138.043 31.0352 137.939 30.6966 137.939 30.293C137.939 30.0195 137.984 29.7201 138.075 29.3945C138.297 28.5872 138.531 27.9297 138.778 27.4219C137.463 26.0938 136.806 24.9544 136.806 24.0039C136.806 23.2096 138.023 22.6823 140.458 22.4219C141.487 20.7422 142.47 19.9023 143.407 19.9023ZM141.142 34.7266H142.958C145.263 34.9479 146.415 36.0352 146.415 37.9883C146.415 38.1836 146.402 38.3854 146.376 38.5938V39.2773C145.92 42.1549 145.693 44.2057 145.693 45.4297V48.1641C145.992 51.9531 146.142 53.9258 146.142 54.082C146.142 56.1654 144.625 57.4544 141.591 57.9492C139.299 57.6237 137.887 56.0417 137.353 53.2031C136.832 50.3516 136.571 48.3659 136.571 47.2461C136.571 38.8997 138.095 34.7266 141.142 34.7266ZM167.255 23.1055C174.677 23.1055 179.462 25.8398 181.611 31.3086C181.91 32.181 182.06 33.1641 182.06 34.2578C182.06 37.1224 179.664 40.0391 174.872 43.0078C181.226 45.0911 184.403 47.2461 184.403 49.4727C184.403 49.6549 184.384 49.8372 184.345 50.0195C183.772 52.4544 181.969 53.8997 178.935 54.3555C173.687 53.5872 169.683 51.276 166.923 47.4219C166.923 49.1536 166.982 50.4622 167.099 51.3477C167.216 52.2331 167.275 53.0794 167.275 53.8867C167.183 56.1914 165.816 57.3958 163.173 57.5C163.017 57.513 162.861 57.5195 162.704 57.5195C160.478 57.5195 158.883 56.4518 157.919 54.3164C157.307 50.4232 156.923 46.6211 156.767 42.9102C156.923 39.069 157.19 36.1003 157.568 34.0039L156.767 34.043C155.4 34.043 154.143 33.8346 152.997 33.418C151.864 32.9883 151.298 31.6732 151.298 29.4727C151.298 25.8268 155.094 23.7044 162.685 23.1055H167.255ZM167.255 37.3047C169.729 36.4844 170.966 35.6901 170.966 34.9219V34.8828C170.914 34.1016 169.736 33.6003 167.431 33.3789L167.255 37.3047ZM203.466 23.5547C208.427 23.5547 212.222 26.1393 214.853 31.3086V32.6758C214.853 35.1497 213.258 36.5169 210.068 36.7773C208.739 36.7773 207.073 35.5599 205.068 33.125C204.56 32.8255 204.104 32.6758 203.7 32.6758H202.782C199.384 32.6758 197.027 34.4987 195.712 38.1445L195.497 39.4922V40.8594C196.226 44.8177 197.893 46.7969 200.497 46.7969C202.268 46.7969 205.159 45.5794 209.169 43.1445C209.417 42.9883 209.794 42.9102 210.302 42.9102H210.986C213.72 43.444 215.087 44.8112 215.087 47.0117V47.6953C215.087 50.7422 211.292 53.3268 203.7 55.4492C202.906 55.6055 201.995 55.6836 200.966 55.6836H199.599C194.091 55.6836 189.989 52.3372 187.294 45.6445C186.682 43.4831 186.376 41.6602 186.376 40.1758C186.376 33.6263 189.488 28.6198 195.712 25.1562C198.056 24.0885 200.64 23.5547 203.466 23.5547Z" fill="url(#paint0_linear_18_55)"/>
<path d="M41.385 0.126587L50.9057 27.4917L82.2749 27.6089L56.7898 44.4043L66.3106 71.7694L41.0392 54.7844L15.5541 71.5797L25.4206 44.2871L0.14928 27.3021L31.5185 27.4193L41.385 0.126587Z" fill="url(#paint1_linear_18_55)"/>
<defs>
<linearGradient id="paint0_linear_18_55" x1="81.9756" y1="53.3333" x2="282.341" y2="53.3333" gradientUnits="userSpaceOnUse">
<stop stop-color="#CA65FF"/>
<stop offset="1" stop-color="#81F3FE"/>
</linearGradient>
<linearGradient id="paint1_linear_18_55" x1="41.385" y1="0.126587" x2="41.0895" y2="79.2288" gradientUnits="userSpaceOnUse">
<stop stop-color="#CA65FF"/>
<stop offset="1" stop-color="#81F3FE"/>
</linearGradient>
</defs>
</svg>
