<svg width="271" height="271" viewBox="0 0 271 271" fill="none" xmlns="http://www.w3.org/2000/svg">
<path d="M149.654 219.333C146.347 216.025 140.984 216.025 137.677 219.333C134.37 222.64 134.37 228.002 137.677 231.31L149.654 219.333ZM39.6907 133.323C42.998 136.63 48.3601 136.63 51.6673 133.323C54.9746 130.016 54.9746 124.653 51.6673 121.346L39.6907 133.323ZM127.335 45.679L133.323 51.6673C134.911 50.0791 135.804 47.925 135.804 45.679C135.804 43.433 134.911 41.2788 133.323 39.6907L127.335 45.679ZM225.321 143.665L231.31 137.677C229.721 136.089 227.567 135.196 225.321 135.196C223.075 135.196 220.921 136.089 219.333 137.677L225.321 143.665ZM94.1277 66.9091C90.8204 70.2164 90.8204 75.5785 94.1277 78.8857C97.4349 82.1931 102.797 82.1931 106.104 78.8857L94.1277 66.9091ZM192.114 164.896C188.807 168.203 188.807 173.565 192.114 176.873C195.421 180.18 200.784 180.18 204.091 176.873L192.114 164.896ZM56.0218 39.6907L39.6907 56.0218L51.6673 67.9984L67.9984 51.6673L56.0218 39.6907ZM214.979 231.31L231.31 214.979L219.333 203.002L203.002 219.333L214.979 231.31ZM137.677 231.31C145.206 238.839 151.443 245.1 157.046 249.375C162.845 253.799 168.948 256.885 176.327 256.885V239.948C174.14 239.948 171.612 239.185 167.32 235.91C162.833 232.486 157.522 227.201 149.654 219.333L137.677 231.31ZM203.002 219.333C195.134 227.201 189.823 232.486 185.336 235.91C181.044 239.185 178.514 239.948 176.327 239.948V256.885C183.707 256.885 189.811 253.799 195.609 249.375C201.212 245.1 207.449 238.839 214.979 231.31L203.002 219.333ZM39.6907 56.0218C32.1614 63.5511 25.8994 69.7877 21.6244 75.3906C17.2004 81.1891 14.1146 87.2928 14.1146 94.6723H31.0521C31.0521 92.4852 31.8155 89.9564 35.0901 85.6647C38.5137 81.1774 43.7995 75.8662 51.6673 67.9984L39.6907 56.0218ZM51.6673 121.346C43.7995 113.478 38.5137 108.167 35.0901 103.68C31.8155 99.3881 31.0521 96.8594 31.0521 94.6723H14.1146C14.1146 102.052 17.2004 108.156 21.6244 113.954C25.8994 119.557 32.1614 125.794 39.6907 133.323L51.6673 121.346ZM133.323 39.6907C125.794 32.1614 119.557 25.8994 113.954 21.6245C108.156 17.2004 102.052 14.1146 94.6723 14.1146V31.0521C96.8593 31.0521 99.3881 31.8155 103.68 35.0901C108.167 38.5137 113.478 43.7995 121.346 51.6673L133.323 39.6907ZM67.9984 51.6673C75.8662 43.7995 81.1774 38.5137 85.6647 35.0901C89.9564 31.8156 92.4852 31.0521 94.6723 31.0521V14.1146C87.2928 14.1146 81.1891 17.2004 75.3906 21.6245C69.7877 25.8994 63.5511 32.1614 56.0218 39.6907L67.9984 51.6673ZM219.333 149.654C227.201 157.522 232.486 162.833 235.91 167.32C239.185 171.612 239.948 174.14 239.948 176.327H256.885C256.885 168.948 253.799 162.845 249.375 157.046C245.1 151.443 238.839 145.206 231.31 137.677L219.333 149.654ZM231.31 214.979C238.839 207.449 245.1 201.212 249.375 195.609C253.799 189.811 256.885 183.708 256.885 176.327H239.948C239.948 178.514 239.185 181.044 235.91 185.336C232.486 189.823 227.201 195.134 219.333 203.002L231.31 214.979ZM121.346 39.6907L94.1277 66.9091L106.104 78.8857L133.323 51.6673L121.346 39.6907ZM219.333 137.677L192.114 164.896L204.091 176.873L231.31 149.654L219.333 137.677Z" fill="#DC99FF"/>
<path d="M162.149 46.0549L172.615 35.5889C189.955 18.2481 218.07 18.2481 235.411 35.5889C252.752 52.9295 252.752 81.0443 235.411 98.385L224.945 108.851M162.149 46.0549C162.149 46.0549 163.457 68.2952 183.081 87.919C202.705 107.543 224.945 108.851 224.945 108.851M162.149 46.0549L65.93 142.274C59.4129 148.791 56.1543 152.049 53.352 155.642C50.0461 159.881 47.212 164.467 44.8995 169.319C42.9391 173.432 41.482 177.804 38.5674 186.547L29.236 214.542L26.2171 223.599M224.945 108.851L128.726 205.07C122.209 211.587 118.951 214.845 115.358 217.648C111.119 220.954 106.533 223.788 101.681 226.101C97.5679 228.061 93.196 229.518 84.4524 232.432L56.4583 241.764L47.4015 244.783M26.2171 223.599L23.1982 232.656C21.7639 236.958 22.8837 241.702 26.0909 244.909C29.298 248.116 34.0419 249.236 38.3447 247.802L47.4015 244.783M26.2171 223.599L47.4015 244.783" stroke="#DC99FF" stroke-width="15.0556"/>
</svg>
