<svg width="268" height="272" viewBox="0 0 268 272" fill="none" xmlns="http://www.w3.org/2000/svg">
<path d="M30.7083 182.962V56.6431H13.9583V182.962H30.7083ZM254.042 182.962V55.9109H237.292V182.962H254.042ZM223.958 25.7076C211.245 26.1571 194.631 27.4991 181.848 31.3828L186.652 47.6687C197.251 44.4483 212.046 43.1391 224.54 42.6973L223.958 25.7076ZM181.848 31.3828C170.737 34.7589 158.238 41.3531 148.497 47.0758L156.886 61.7893C166.383 56.2112 177.493 50.4516 186.652 47.6687L181.848 31.3828ZM43.9564 43.3341C54.7433 44.007 66.9601 45.3154 76.0298 47.7444L80.3035 31.3071C69.5745 28.4336 56.0027 27.0535 44.9839 26.3661L43.9564 43.3341ZM76.0298 47.7444C86.7735 50.6218 99.9959 56.9169 110.904 62.7708L118.733 47.7425C107.617 41.7767 92.9922 34.7054 80.3035 31.3071L76.0298 47.7444ZM156.114 234.954C167.181 228.966 180.887 222.367 191.971 219.399L187.696 202.961C174.628 206.46 159.49 213.862 148.235 219.952L156.114 234.954ZM191.971 219.399C200.936 216.997 212.984 215.689 223.691 215.01L222.644 198.043C211.7 198.738 198.31 200.118 187.696 202.961L191.971 219.399ZM119.765 219.952C108.51 213.862 93.3723 206.46 80.3035 202.961L76.0298 219.399C87.1134 222.367 100.819 228.966 111.886 234.954L119.765 219.952ZM80.3035 202.961C69.6903 200.118 56.2997 198.738 45.3554 198.043L44.3098 215.01C55.0159 215.689 67.0632 216.997 76.0298 219.399L80.3035 202.961ZM237.292 182.962C237.292 190.734 230.946 197.516 222.644 198.043L223.691 215.01C240.153 213.965 254.042 200.372 254.042 182.962H237.292ZM254.042 55.9109C254.042 39.3268 241.029 25.1041 223.958 25.7076L224.54 42.6973C231.406 42.4547 237.292 48.1863 237.292 55.9109H254.042ZM13.9583 182.962C13.9583 200.372 27.8472 213.965 44.3098 215.01L45.3554 198.043C37.0545 197.516 30.7083 190.734 30.7083 182.962H13.9583ZM148.235 219.952C139.388 224.739 128.612 224.739 119.765 219.952L111.886 234.954C125.657 242.404 142.343 242.404 156.114 234.954L148.235 219.952ZM148.497 47.0758C139.361 52.4417 127.989 52.7094 118.733 47.7425L110.904 62.7708C125.334 70.5147 142.833 70.0442 156.886 61.7893L148.497 47.0758ZM30.7083 56.6431C30.7083 48.7417 36.8771 42.8925 43.9564 43.3341L44.9839 26.3661C27.5836 25.2807 13.9583 39.6527 13.9583 56.6431H30.7083Z" fill="#DC99FF"/>
<path d="M134 66.3453V237.999" stroke="#DC99FF" stroke-width="3"/>
<path d="M55.8333 102L100.5 113.333" stroke="#DC99FF" stroke-width="3" stroke-linecap="round"/>
<path d="M212.167 102L167.5 113.333" stroke="#DC99FF" stroke-width="3" stroke-linecap="round"/>
<path d="M55.8333 147.333L100.5 158.667" stroke="#DC99FF" stroke-width="3" stroke-linecap="round"/>
<path d="M212.167 147.333L167.5 158.667" stroke="#DC99FF" stroke-width="3" stroke-linecap="round"/>
</svg>
