<svg width="287" height="287" viewBox="0 0 287 287" fill="none" xmlns="http://www.w3.org/2000/svg">
<path d="M200.4 151.591L190.294 112.16C185.025 91.6054 182.391 81.3279 175.512 76.1612C173.206 74.429 170.621 73.1439 167.881 72.3669C159.705 70.0492 150.414 74.4003 131.831 83.1025C118.07 89.5466 111.19 92.7686 104.01 95.0475C101.514 95.8398 98.9939 96.5458 96.4533 97.1643C89.1458 98.9435 81.6462 99.7495 66.6471 101.361C46.3917 103.538 36.264 104.627 30.2927 110.907C28.2909 113.013 26.667 115.477 25.4983 118.182C22.0121 126.252 24.6464 136.529 29.9148 157.085L40.0213 196.516C51.9014 242.865 91.4009 257.446 117.944 261.957C126.042 263.332 130.091 264.021 142.388 260.576C154.685 257.132 157.862 254.42 164.217 248.995C185.046 231.214 212.281 197.942 200.4 151.591Z" stroke="#DC99FF" stroke-width="15.1053"/>
<path d="M197.31 205.934C218.131 196.961 238.913 180.138 246.977 148.683L257.083 109.252C262.351 88.6965 264.986 78.4191 261.499 70.349C260.331 67.6435 258.707 65.1794 256.705 63.0739C250.734 56.7936 240.605 55.7052 220.35 53.5282C205.351 51.9162 197.852 51.1102 190.544 49.331C188.003 48.7125 185.483 48.0065 182.986 47.2141C175.808 44.9353 168.927 41.7133 155.167 35.2692C136.583 26.567 127.292 22.2159 119.117 24.5336C116.376 25.3105 113.792 26.5957 111.486 28.3279C104.607 33.4946 101.972 43.7721 96.7038 64.327L88.3387 96.9637" stroke="#DC99FF" stroke-width="15.1053"/>
<path d="M62.8867 158.992C63.6055 151.587 69.1188 144.942 77.118 142.799C85.1171 140.655 93.2141 143.653 97.5393 149.708" stroke="#DC99FF" stroke-width="15.1053" stroke-linecap="round"/>
<path d="M229.357 106.855C228.637 99.4503 223.125 92.8054 215.126 90.6621C207.127 88.5187 199.03 91.5166 194.704 97.5704" stroke="#DC99FF" stroke-width="15.1053" stroke-linecap="round"/>
<path d="M132.196 140.418C132.914 133.013 138.428 126.368 146.427 124.224C154.426 122.081 162.523 125.079 166.849 131.133" stroke="#DC99FF" stroke-width="15.1053" stroke-linecap="round"/>
<path d="M132.69 84.2089C129.81 88.2392 124.209 89.1721 120.179 86.2927C116.148 83.4131 115.215 77.8116 118.095 73.7812L132.69 84.2089ZM143.493 80.75C138.964 79.5364 134.757 81.3151 132.69 84.2089L118.095 73.7812C124.678 64.5676 136.666 60.3504 148.135 63.4237L143.493 80.75ZM149.215 84.4908C147.892 82.7848 145.937 81.4051 143.493 80.75L148.135 63.4237C154.408 65.1044 159.695 68.7336 163.39 73.4994L149.215 84.4908Z" fill="#DC99FF"/>
<path d="M157.858 194.096C157.858 194.096 145.602 184.999 124.228 190.726C102.853 196.454 96.7874 210.46 96.7874 210.46" stroke="#DC99FF" stroke-width="15.1053" stroke-linecap="round"/>
</svg>
